<?xml version="1.0" encoding="iso-8859-1"?>
<!-- Uploaded to: SVG Repo, www.svgrepo.com, Generator: SVG Repo Mixer Tools -->
<!DOCTYPE svg PUBLIC "-//W3C//DTD SVG 1.1//EN" "http://www.w3.org/Graphics/SVG/1.1/DTD/svg11.dtd">
<svg fill="#000000" height="800px" width="800px" version="1.1" id="Capa_1" xmlns="http://www.w3.org/2000/svg" xmlns:xlink="http://www.w3.org/1999/xlink" 
	 viewBox="0 0 462.054 462.054" xml:space="preserve">
<g>
	<path d="M178.828,345.125c-12.279,0-22.269,9.99-22.269,22.269s9.99,22.269,22.269,22.269c12.279,0,22.269-9.99,22.269-22.269
		S191.107,345.125,178.828,345.125z M178.828,374.662c-4.008,0-7.269-3.261-7.269-7.269s3.261-7.269,7.269-7.269
		c4.008,0,7.269,3.261,7.269,7.269S182.836,374.662,178.828,374.662z"/>
	<path d="M230.518,345.125c-12.279,0-22.269,9.99-22.269,22.269s9.99,22.269,22.269,22.269s22.269-9.99,22.269-22.269
		S242.797,345.125,230.518,345.125z M230.518,374.662c-4.008,0-7.269-3.261-7.269-7.269s3.261-7.269,7.269-7.269
		s7.269,3.261,7.269,7.269S234.526,374.662,230.518,374.662z"/>
	<path d="M282.209,345.125c-12.279,0-22.269,9.99-22.269,22.269s9.99,22.269,22.269,22.269s22.269-9.99,22.269-22.269
		S294.487,345.125,282.209,345.125z M282.209,374.662c-4.008,0-7.269-3.261-7.269-7.269s3.261-7.269,7.269-7.269
		s7.269,3.261,7.269,7.269S286.216,374.662,282.209,374.662z"/>
	<path d="M447.388,280.945c-0.938-4.035-4.969-6.547-9.003-5.607l-126.25,29.342c-3.397,0.79-5.802,3.817-5.802,7.305
		c0,6.084-4.95,11.035-11.035,11.035h-57.28V207.922c6.545,7.088,15.653,11.112,25.414,11.111c10.713,0,20.65-4.834,27.263-13.263
		l5.661-7.216l5.666,7.221c6.613,8.428,16.549,13.262,27.262,13.262c10.712,0,20.649-4.834,27.261-13.262l9.315-11.872h10.432
		c4.142,0,7.5-3.358,7.5-7.5s-3.358-7.5-7.5-7.5H238.018v-36.984c6.545,7.088,15.653,11.111,25.414,11.111
		c10.713,0,20.65-4.834,27.263-13.263l9.309-11.866h11.683c4.142,0,7.5-3.358,7.5-7.5s-3.358-7.5-7.5-7.5h-73.669V82.917h15.971
		c3.671,0,6.802-2.657,7.4-6.279l5.192-31.474c0.358-2.173-0.256-4.394-1.681-6.073c-1.425-1.679-3.516-2.647-5.719-2.647h-21.164
		V7.5c0-4.142-3.358-7.5-7.5-7.5s-7.5,3.358-7.5,7.5v28.943h-21.164c-2.203,0-4.293,0.968-5.719,2.647
		c-1.425,1.679-2.04,3.9-1.681,6.073l5.192,31.474c0.598,3.622,3.729,6.279,7.4,6.279h15.971V112.9h-73.669
		c-4.142,0-7.5,3.358-7.5,7.5s3.358,7.5,7.5,7.5h11.664l9.307,11.865c6.613,8.429,16.55,13.264,27.264,13.264
		c9.771,0,18.888-4.032,25.434-11.134v37.008H84.745c-4.142,0-7.5,3.358-7.5,7.5s3.358,7.5,7.5,7.5h10.431l9.302,11.859
		c6.613,8.431,16.551,13.266,27.265,13.266c10.715,0,20.653-4.835,27.266-13.266l5.653-7.208l5.658,7.213
		c6.613,8.429,16.55,13.264,27.264,13.264c9.771,0,18.888-4.032,25.434-11.134V323.02h-25.712c-7.502,0-13.606-6.104-13.606-13.606
		v-48.379c0-4.142-3.358-7.5-7.5-7.5H21.969c-4.142,0-7.5,3.358-7.5,7.5s3.358,7.5,7.5,7.5h10.434v15.734H21.969
		c-4.142,0-7.5,3.358-7.5,7.5s3.358,7.5,7.5,7.5h10.434v31.251c0,4.142,3.358,7.5,7.5,7.5h26.752
		c0.971,13.161,3.403,26.705,8.029,39.79h-8.054c-4.142,0-7.5,3.358-7.5,7.5v53.443c0,4.142,3.358,7.5,7.5,7.5h37.408
		c2.934,0,5.599-1.711,6.819-4.378l4.323-9.445c24.844,17.914,61.427,29.624,114.616,29.624c90.31,0,164.135-72.01,167.293-161.72
		l44.69-10.386C445.816,289.01,448.326,284.979,447.388,280.945z M210.694,51.443h39.649l-2.718,16.474h-34.214L210.694,51.443z
		 M263.432,204.033c-6.076,0-11.711-2.742-15.462-7.522l-2.046-2.608h35.015l-2.046,2.608
		C275.143,201.291,269.507,204.033,263.432,204.033z M344.743,196.515c-3.75,4.78-9.385,7.521-15.46,7.521
		c-6.076,0-11.711-2.741-15.461-7.521l-2.05-2.612h35.021L344.743,196.515z M278.893,130.507c-3.75,4.78-9.385,7.522-15.461,7.522
		c-6.076,0-11.712-2.741-15.462-7.521l-2.046-2.608h35.014L278.893,130.507z M197.584,138.028c-6.076,0-11.711-2.742-15.462-7.522
		l-2.044-2.606h35.013l-2.044,2.606C209.296,135.287,203.66,138.028,197.584,138.028z M131.743,204.028
		c-6.076,0-11.712-2.742-15.462-7.523l-2.041-2.602h35.007l-2.041,2.602C143.456,201.286,137.82,204.028,131.743,204.028z
		 M197.584,204.032c-6.076,0-11.711-2.742-15.462-7.522l-2.045-2.607h35.014l-2.045,2.606
		C209.296,201.29,203.66,204.032,197.584,204.032z M47.403,268.535H168.7v15.734H47.403V268.535z M99.224,431.253H74.132V392.81
		h6.985c5.444,10.632,12.669,20.698,22.111,29.697L99.224,431.253z M229.798,447.054c-92.566,0-142.345-36.676-148.096-109.035
		h71.783c4.142,0,7.5-3.358,7.5-7.5s-3.358-7.5-7.5-7.5H47.403v-23.751H168.7v10.145c0,15.773,12.833,28.606,28.606,28.606h97.992
		c12.247,0,22.545-8.499,25.307-19.909l61.311-14.25C377.003,383.653,310.652,447.054,229.798,447.054z"/>
</g>
</svg>